<?xml version="1.0" encoding="iso-8859-1"?>
<!-- Generator: Adobe Illustrator 19.0.0, SVG Export Plug-In . SVG Version: 6.00 Build 0)  -->
<svg version="1.1" id="Capa_1" xmlns="http://www.w3.org/2000/svg" xmlns:xlink="http://www.w3.org/1999/xlink" x="0px" y="0px"
	 viewBox="0 0 511.195 511.195" style="enable-background:new 0 0 511.195 511.195;" xml:space="preserve">
<path style="fill:#CED6E0;" d="M134.929,194.838l17.067-6.4h30.933l38.4,58.667l37.333,126.933l-21.333,45.867l-67.2-3.2
	C169.062,416.705,87.995,216.171,134.929,194.838z"/>
<path style="fill:#425A6B;" d="M84.795,305.771c0,0,1.067,55.467,0,62.933c0,0,21.333,9.6,34.133,9.6s77.867-4.267,77.867-4.267
	s-5.333,62.933,0,70.4c0,0-69.333,4.267-86.4,3.2c-17.067-1.067-59.733-7.467-67.2-7.467s-26.667-9.6-34.133-36.267
	c-7.467-26.667-7.467-67.2-8.533-80c-1.067-12.8-1.067-69.333,5.333-81.067c6.4-11.733,12.8-19.2,12.8-19.2
	c9.6-7.467,21.333-9.6,35.2-7.467C53.862,216.171,106.129,273.771,84.795,305.771z"/>
<path style="fill:#F05640;" d="M164.795,205.505l7.467,9.6c0,0,3.2,6.4,6.4,13.867c3.2,7.467,9.6,26.667,17.067,38.4
	s16,58.667,22.4,84.267c6.4,24.533,12.8,86.4,12.8,86.4l-11.733,38.4l-30.933-23.467c0,0-7.467-130.133-16-161.067
	c-8.533-30.933-12.8-50.133-13.867-58.667c-1.067-9.6-1.067-14.933-1.067-14.933L164.795,205.505z"/>
<path style="fill:#344A5E;" d="M18.662,223.638c0,0,20.267-11.733,34.133,3.2c13.867,14.933,32,64,32,78.933
	c0,14.933-33.067,94.933-33.067,94.933l-10.667,75.733h177.067c0,0-12.8-74.667-17.067-89.6s-43.733-109.867-43.733-109.867
	l-43.733-71.467l-27.733-29.867l-8.533-5.333c0,0-7.467,8.533-20.267,19.2C46.395,201.238,21.862,214.038,18.662,223.638z"/>
<path style="fill:#FFD15C;" d="M415.462,159.638c0,0,17.067-4.267,22.4-8.533c4.267-4.267,18.133-22.4,18.133-22.4
	s1.067-2.133,6.4-3.2c5.333-1.067,21.333-2.133,21.333-2.133s17.067,3.2,18.133,7.467c2.133,3.2,0,8.533-4.267,7.467
	c-3.2-1.067-10.667-3.2-14.933-3.2s-5.333,0-5.333,0s12.8,0,16,3.2c3.2,3.2,5.333,10.667,5.333,10.667s-1.067,5.333-5.333,2.133
	c-4.267-3.2-4.267-4.267-4.267-4.267l-5.333-2.133l-7.467,1.067c0,0,7.467,0,9.6,1.067c2.133,1.067,4.267,7.467,4.267,7.467
	l-4.267,8.533c0,0-4.267-1.067-4.267-3.2s0-3.2,0-3.2h-3.2h-5.333v2.133c0,0,14.933,2.133,14.933,4.267c0,3.2-3.2,6.4-5.333,5.333
	c0,0-7.467-1.067-9.6-1.067c-2.133,0-5.333,0-7.467,2.133c-2.133,2.133-8.533,10.667-22.4,10.667s-28.8,9.6-28.8,9.6v-29.867
	H415.462z"/>
<g>
	<path style="fill:#F5B54C;" d="M463.462,128.705l1.067,1.067C464.529,128.705,464.529,128.705,463.462,128.705z"/>
	<path style="fill:#F5B54C;" d="M479.462,130.838c0,0-3.2,1.067-5.333,2.133l0,0l0,0l0,0l0,0l0,0h-1.067l0,0
		c-2.133,0-6.4,1.067-8.533,2.133c1.067-1.067,1.067-2.133,1.067-3.2c0-1.067-1.067-1.067-1.067-2.133l1.067,1.067
		c1.067,0,1.067,1.067,2.133,1.067c1.067,1.067,2.133,1.067,3.2,1.067s2.133-1.067,2.133-2.133v-1.067
		c0-1.067-1.067-2.133-1.067-3.2c0,1.067,1.067,2.133,1.067,2.133c0,1.067,1.067,1.067,1.067,2.133c1.067,0,2.133,1.067,2.133,0
		C477.329,130.838,479.462,130.838,479.462,130.838z"/>
</g>
<path style="fill:#425A6B;" d="M189.329,158.571c0,0,22.4,0,28.8,14.933c6.4,14.933,17.067,16,22.4,17.067
	c5.333,1.067,65.067-3.2,69.333-5.333s54.4-12.8,62.933-16s43.733-11.733,43.733-11.733s17.067,30.933,12.8,52.267
	c0,0-52.267,14.933-68.267,22.4c-16,6.4-42.667,25.6-50.133,23.467c-8.533-2.133-17.067,0-25.6,4.267s-41.6,8.533-41.6,8.533
	l-49.067-85.333L189.329,158.571z"/>
<path style="fill:#344A5E;" d="M157.329,167.105c0,0,12.8-8.533,22.4-8.533c9.6,0,9.6,0,9.6,0s24.533,14.933,32,35.2
	c6.4,20.267,20.267,69.333,20.267,69.333s9.6,30.933,10.667,46.933c0,16,6.4,168.533,6.4,168.533h-37.333
	c0,0,8.533-142.933,3.2-163.2c-5.333-20.267-19.2-42.667-19.2-42.667l-19.2-51.2L157.329,167.105z"/>
<path style="fill:#425A6B;" d="M163.729,177.771l13.867,6.4l-4.267,6.4c0,0,34.133,33.067,44.8,59.733
	c10.667,26.667,18.133,83.2,5.333,130.133c0,0-2.133-70.4-10.667-91.733c-8.533-20.267-36.267-73.6-40.533-82.133
	C172.262,207.638,166.929,180.971,163.729,177.771z"/>
<path style="fill:#67C5B8;" d="M271.462,338.838l-55.467,65.067l-1.067,1.067l-9.6,24.533c-1.067,2.133,1.067,4.267,3.2,2.133
	l61.867-48l1.067-1.067c4.267-5.333,36.267-52.267,55.467-72.533c8.533-9.6,14.933-16,19.2-20.267c1.067-1.067,0-3.2-2.133-2.133
	l-69.333,46.933C273.595,336.705,272.529,337.771,271.462,338.838z"/>
<g>
	
		<ellipse transform="matrix(0.1164 -0.9932 0.9932 0.1164 46.4179 286.1807)" style="fill:#FFD15C;" cx="184.048" cy="117.003" rx="18.133" ry="5.333"/>
	<path style="fill:#FFD15C;" d="M185.062,102.038l-1.067,11.733c0,0-1.067,29.867-7.467,39.467c-6.4,9.6-9.6,12.8-12.8,17.067
		c-3.2,5.333-5.333,6.4-5.333,6.4l-6.4,32l-19.2-4.267l-40.533-48l-2.133-21.333l-3.2-18.133l6.4-32c0,0-8.533-21.333,12.8-33.067
		s42.667-10.667,42.667-10.667c1.067,0,33.067,24.533,33.067,24.533L185.062,102.038z"/>
</g>
<path style="fill:#F26F5A;" d="M138.129,203.371l18.133,13.867c0,0,12.8-6.4,14.933-2.133c0,0-5.333-27.733-9.6-30.933l-10.667,3.2
	C151.995,188.438,133.862,191.638,138.129,203.371z"/>
<path style="fill:#344A5E;" d="M95.462,112.705L95.462,112.705C96.529,112.705,96.529,112.705,95.462,112.705
	c1.067-4.267,3.2-18.133,13.867-26.667s0-18.133-2.133-19.2c0,0,0,0,0-1.067c0-2.133,1.067-9.6,17.067-7.467
	c11.733,2.133,28.8,2.133,39.467,2.133c9.6,0,17.067,7.467,18.133,16l0,0c1.067,6.4,1.067,21.333,1.067,28.8
	c0,1.067,1.067,1.067,1.067,0c2.133-7.467,4.267-21.333,1.067-34.133c-4.267-17.067-20.267-34.133-38.4-38.4
	c-14.933-1.067-46.933,8.533-53.333,24.533c-7.467,17.067-6.4,60.8-6.4,60.8C84.795,115.905,87.995,84.971,95.462,112.705
	L95.462,112.705z"/>
<ellipse transform="matrix(-0.1238 -0.9923 0.9923 -0.1238 -17.1301 218.8545)" style="fill:#FFD15C;" cx="88.058" cy="116.99" rx="18.133" ry="7.467"/>
<path style="fill:#F3F3F3;" d="M92.262,147.905c0,0,4.267,8.533,9.6,11.733c5.333,3.2,48,24.533,50.133,28.8l-24.533,36.267
	l-40.533-58.667C85.862,166.038,90.129,151.105,92.262,147.905z"/>
<path style="fill:#425A6B;" d="M90.129,152.171c0,0,0,11.733,5.333,18.133c5.333,6.4,51.2,70.4,61.867,94.933
	c10.667,24.533,39.467,102.4,44.8,124.8c0,0-27.733-57.6-35.2-73.6c-7.467-14.933-60.8-89.6-60.8-89.6l8.533-14.933l-19.2-4.267
	c0,0-17.067-26.667-18.133-32c-1.067-5.333,4.267-10.667,5.333-14.933C84.795,156.438,90.129,152.171,90.129,152.171"/>
<path style="fill:#FFD15C;" d="M190.395,377.238l7.467-4.267c0,0,7.467-5.333,14.933-5.333s10.667,2.133,14.933,2.133
	s12.8-2.133,13.867,1.067c1.067,3.2,0,9.6-5.333,10.667c-5.333,1.067-12.8,1.067-12.8,1.067s1.067,4.267,1.067,5.333
	c0,0,5.333,0,7.467-2.133c3.2-1.067,7.467-5.333,8.533-5.333c0,0,10.667-13.867,17.067-7.467l-3.2,6.4c0,0-6.4,14.933-6.4,16
	c0,0-1.067,3.2-3.2,4.267c-2.133,1.067-3.2,2.133-3.2,2.133l-5.333,8.533l-10.667,12.8c0,0-2.133,4.267-7.467,3.2
	c-5.333-2.133-12.8-4.267-16-4.267c-3.2,0-10.667-1.067-10.667-1.067L190.395,377.238z"/>
<path style="fill:#425A6B;" d="M196.795,444.438c0,0-69.333,4.267-86.4,3.2c-17.067-1.067-59.733-7.467-67.2-7.467
	s-26.667-9.6-34.133-36.267c-7.467-26.667-7.467-67.2-8.533-80c0-2.133,0-4.267,0-7.467l85.333-10.667c0,0,1.067,55.467,0,62.933
	c0,0,21.333,9.6,34.133,9.6s77.867-4.267,77.867-4.267S192.529,435.905,196.795,444.438z"/>
<g>
	<path style="fill:#F5B54C;" d="M230.929,402.838c0,0,0,0,1.067-1.067s2.133-1.067,3.2-2.133c1.067-1.067,3.2-2.133,4.267-3.2
		c1.067-1.067,2.133-1.067,2.133-2.133l1.067-1.067l1.067-1.067c1.067-1.067,1.067-2.133,2.133-2.133
		c1.067-1.067,1.067-2.133,2.133-2.133c1.067-1.067,2.133-3.2,3.2-4.267c1.067-1.067,2.133-2.133,2.133-3.2
		c1.067-1.067,1.067-1.067,1.067-1.067s0,0-1.067,1.067c-1.067,1.067-1.067,2.133-2.133,3.2s-2.133,3.2-3.2,4.267
		c-1.067,2.133-2.133,3.2-4.267,5.333l-1.067,1.067l-1.067,1.067c-1.067,1.067-2.133,1.067-3.2,2.133
		c-2.133,1.067-3.2,2.133-4.267,3.2S231.996,401.771,230.929,402.838C230.929,402.838,230.929,402.838,230.929,402.838z"/>
	<path style="fill:#F5B54C;" d="M241.595,403.905c0,0-1.067,1.067-1.067,2.133c0,0-1.067,1.067-2.133,1.067
		c-1.067,1.067-1.067,1.067-2.133,2.133c-1.067,1.067-1.067,1.067-2.133,2.133c-1.067,0-1.067,1.067-2.133,1.067
		c-1.067,0-1.067,1.067-1.067,1.067h-1.067l0,0c0,0,0,0,1.067,0c0,0,0,0,1.067-1.067c0,0,1.067-1.067,2.133-1.067
		c1.067-1.067,1.067-1.067,2.133-2.133c1.067-1.067,1.067-1.067,2.133-2.133c1.067,0,1.067-1.067,2.133-1.067
		C241.595,403.905,241.595,403.905,241.595,403.905z"/>
</g>
<path style="fill:#F3F3F3;" d="M151.995,188.438c0,0,23.467,4.267,19.2,21.333c0,0,4.267-6.4,1.067-14.933
	c-3.2-8.533-9.6-24.533-9.6-24.533s-3.2,4.267-5.333,6.4L151.995,188.438z"/>
<path style="fill:#56BFEB;" d="M479.462,157.505l30.933-61.867c1.067-3.2,1.067-6.4,0-9.6l0,0l0,0c-3.2,1.067-6.4,3.2-7.467,6.4
	l-30.933,61.867L479.462,157.505z"/>
<path style="fill:#425A6B;" d="M473.062,161.771L473.062,161.771c-2.133-1.067-2.133-2.133-1.067-3.2l2.133-3.2l4.267,2.133
	l-2.133,3.2C476.262,161.771,474.129,161.771,473.062,161.771z"/>
<path style="fill:#FFD15C;" d="M463.462,136.171c0,0,5.333-2.133,9.6-3.2c4.267-1.067,14.933-5.333,17.067-6.4
	c2.133-1.067,6.4,0,5.333,5.333c-1.067,5.333-4.267,7.467-7.467,8.533c-3.2,1.067-9.6,1.067-12.8,5.333
	c-3.2,4.267-6.4,13.867-11.733,18.133s-11.733,4.267-11.733,4.267S444.262,151.105,463.462,136.171z"/>
<path style="fill:#FFFFFF;" d="M486.929,130.838c0,0,2.133,2.133,3.2,4.267c0,0,5.333-3.2,5.333-4.267s-1.067-3.2-3.2-3.2
	C490.129,127.638,486.929,130.838,486.929,130.838z"/>
<g>
	<path style="fill:#F5B54C;" d="M473.062,132.971C473.062,132.971,473.062,131.905,473.062,132.971c1.067,0,1.067,0,2.133,0h1.067
		c2.133-1.067,4.267-2.133,7.467-3.2c2.133-1.067,3.2-1.067,5.333-2.133c0,0,0,0,1.067,0c0,0,0,0,1.067,0s1.067,0,2.133,0
		c1.067,0,2.133,1.067,3.2,2.133s1.067,2.133,1.067,3.2v1.067v1.067c0,1.067,0,1.067-1.067,2.133
		c-1.067,2.133-3.2,4.267-5.333,5.333c0,0-1.067,1.067-2.133,1.067c0,0-1.067,0-2.133,1.067c-1.067,0-2.133,0-3.2,1.067
		c-2.133,0-4.267,1.067-6.4,2.133l-1.067,1.067c0,0,0,0,0,1.067c0,0,0,0,0,1.067c-1.067,1.067-1.067,2.133-2.133,3.2
		c-1.067,2.133-2.133,3.2-3.2,5.333c-2.133,3.2-3.2,5.333-5.333,7.467c-1.067,1.067-1.067,1.067-2.133,2.133h-1.067
		c0,0,0,0,1.067-1.067c0,0,1.067-1.067,2.133-2.133c1.067-1.067,3.2-4.267,5.333-7.467c1.067-1.067,2.133-3.2,3.2-5.333
		c0-1.067,1.067-2.133,1.067-3.2c0,0,0,0,0-1.067c0,0,0,0,1.067-1.067l1.067-1.067c2.133-1.067,4.267-2.133,6.4-2.133
		c1.067,0,2.133,0,3.2-1.067c1.067,0,1.067,0,2.133-1.067c0,0,1.067,0,1.067-1.067c2.133-1.067,4.267-3.2,4.267-5.333
		c0,0,0-1.067,1.067-1.067v-1.067l0,0l0,0c0-1.067,0-2.133-1.067-3.2c-1.067-1.067-1.067-1.067-2.133-1.067h-1.067c0,0,0,0-1.067,0
		c0,0,0,0-1.067,0c-2.133,1.067-3.2,2.133-5.333,2.133c-3.2,1.067-6.4,2.133-8.533,3.2
		C475.195,131.905,474.129,131.905,473.062,132.971C473.062,131.905,473.062,132.971,473.062,132.971z"/>
	<path style="fill:#F5B54C;" d="M487.995,159.638c0,1.067,0,1.067-1.067,2.133l0,0l0,0h-1.067c0,0,0,0-1.067,0c0,0,0,0-1.067,0
		c0,0,0,0-1.067,0l0,0l0,0l0,0l0,0l0,0l0,0l0,0l0,0l0,0l0,0l0,0l0,0c0,0,0,0,1.067,0h1.067h1.067l0,0
		C486.929,160.705,486.929,159.638,487.995,159.638z"/>
</g>
<g>
</g>
<g>
</g>
<g>
</g>
<g>
</g>
<g>
</g>
<g>
</g>
<g>
</g>
<g>
</g>
<g>
</g>
<g>
</g>
<g>
</g>
<g>
</g>
<g>
</g>
<g>
</g>
<g>
</g>
</svg>
