<?xml version="1.0" encoding="iso-8859-1"?>
<!-- Generator: Adobe Illustrator 19.0.0, SVG Export Plug-In . SVG Version: 6.00 Build 0)  -->
<svg version="1.1" id="Capa_1" xmlns="http://www.w3.org/2000/svg" xmlns:xlink="http://www.w3.org/1999/xlink" x="0px" y="0px"
	 viewBox="0 0 512.256 512.256" style="enable-background:new 0 0 512.256 512.256;" xml:space="preserve">
<path style="fill:#344A5E;" d="M365.513,510.123c0,0,3.2-1.067,3.2-3.2c0,0,0-8.533-1.067-10.667c0-2.133-1.067-9.6-1.067-11.733
	c0-2.133-1.067-3.2-1.067-3.2l-23.467-1.067c0,0-3.2,13.867-4.267,16c-1.067,2.133-2.133,9.6-2.133,10.667s0,3.2,0,3.2l5.333,1.067
	C343.113,511.189,363.379,510.123,365.513,510.123z"/>
<g>
	<path style="fill:#425A6B;" d="M337.779,505.856c0,0,0,2.133,2.133,3.2c1.067,0,1.067,0,1.067,0c1.067,0,2.133,0,3.2,0
		c4.267,0,11.733,0,12.8,1.067c2.133,1.067,9.6,2.133,11.733-2.133c0,0,1.067,3.2-3.2,4.267c-4.267,0-9.6,0-11.733,0
		c-2.133,0-12.8,0-14.933,0C337.779,511.189,335.646,509.056,337.779,505.856z"/>
	<path style="fill:#425A6B;" d="M252.446,485.589c0,0,0,0,0,1.067s9.6,3.2,11.733,4.267c2.133,0,20.267,1.067,24.533-1.067
		c4.267-2.133,11.733-5.333,13.867-5.333v2.133l4.267,2.133c0,0,16,0,17.067-2.133s0-7.467,0-7.467l-18.133-2.133L252.446,485.589z"
		/>
</g>
<path style="fill:#344A5E;" d="M252.446,485.589c0,0,6.4,2.133,9.6,2.133c2.133,1.067,23.467,2.133,28.8-1.067
	s11.733-5.333,17.067-5.333c4.267,0,14.933-1.067,16-2.133c0,0,2.133-14.933-4.267-18.133c-6.4-3.2-36.267,3.2-36.267,3.2
	l-3.2,5.333c0,0-5.333,7.467-12.8,8.533C259.913,479.189,252.446,479.189,252.446,485.589z"/>
<path style="fill:#425A6B;" d="M321.779,310.656c0,0-3.2,26.667-3.2,33.067s2.133,56.533,2.133,62.933c0,5.333,0,33.067,0,40.533
	c0,6.4,2.133,14.933,2.133,14.933s-6.4,12.8-20.267,10.667c-13.867-2.133-21.333-3.2-21.333-3.2s5.333-14.933,3.2-22.4
	c-2.133-7.467-7.467-27.733-9.6-46.933c-2.133-19.2-4.267-118.4-4.267-118.4l6.4-49.067l30.933-3.2l17.067,73.6L321.779,310.656z"/>
<path style="fill:#344A5E;" d="M319.646,330.923c1.067-9.6,2.133-20.267,2.133-20.267l2.133-6.4l-7.467-32l-7.467,1.067
	C308.979,273.323,318.579,319.189,319.646,330.923z"/>
<path style="fill:#425A6B;" d="M313.246,280.789c0,0,3.2,19.2,6.4,29.867c3.2,9.6,5.333,55.467,5.333,60.8
	c0,5.333,7.467,104.533,9.6,110.933c2.133,7.467,2.133,7.467,2.133,7.467s12.8-6.4,23.467-5.333c0,0,6.4,1.067,6.4,3.2
	c0,0,6.4-6.4,4.267-17.067c-2.133-10.667-3.2-37.333-3.2-45.867s-2.133-65.067-5.333-75.733c-2.133-10.667-4.267-20.267-3.2-27.733
	c0-7.467,3.2-46.933,3.2-46.933L313.246,280.789z"/>
<polygon style="fill:#67C5B8;" points="294.046,79.189 311.113,79.189 319.646,89.856 288.713,136.789 284.446,109.056 "/>
<path style="fill:#344A5E;" d="M289.779,80.256c0,0-8.533,5.333-11.733,6.4c-3.2,2.133-16,7.467-16,7.467l-2.133,3.2l-3.2,27.733
	v60.8l13.867,6.4c0,0-5.333,25.6-5.333,32c0,5.333,3.2,59.733,3.2,62.933c0,0,10.667,4.267,14.933-6.4s8.533-55.467,8.533-55.467
	l-4.267-94.933C287.646,130.389,288.713,84.523,289.779,80.256z"/>
<path style="fill:#304556;" d="M291.913,224.256c0,0-1.067,11.733-3.2,25.6c-2.133-9.6-4.267-22.4-6.4-37.333
	c-3.2-27.733-6.4-53.333-6.4-54.4v-1.067l10.667-19.2L291.913,224.256z"/>
<path style="fill:#E8EAE8;" d="M256.713,185.856c0,0,14.933-1.067,14.933,8.533s-6.4,16-7.467,16l-1.067,1.067
	c-1.067,0-3.2-2.133-3.2-2.133c-1.067,0-3.2-5.333-3.2-5.333S254.579,189.056,256.713,185.856z"/>
<path style="fill:#FFD15C;" d="M270.579,190.123L270.579,190.123L270.579,190.123L270.579,190.123L270.579,190.123
	C270.579,191.189,270.579,191.189,270.579,190.123L270.579,190.123c-2.133,2.133-4.267,3.2-4.267,3.2l0,0
	c0,1.067-1.067,2.133-2.133,2.133l0,0c0,0-6.4,2.133-9.6,2.133c0-4.267,0-10.667,1.067-12.8c0,0,1.067-1.067,2.133-2.133
	c0,0,0,0,1.067-1.067l0,0l0,0l0,0l0,0l0,0v-1.067l9.6,4.267C268.446,185.856,271.646,187.989,270.579,190.123z"/>
<path style="fill:#425A6B;" d="M256.713,185.856c0,0-1.067,12.8,0,18.133c2.133,5.333,4.267,9.6,6.4,7.467
	c0,0-1.067,2.133-2.133,1.067c-1.067-1.067-5.333-5.333-7.467-6.4c-2.133-1.067-4.267-7.467-6.4-8.533
	c-2.133-1.067-4.267-3.2-5.333-6.4c-1.067-3.2-1.067-13.867-1.067-16c0-2.133,3.2-9.6,4.267-10.667
	c1.067-2.133,4.267-13.867,4.267-17.067c0-2.133,4.267-29.867,4.267-33.067c0-3.2,3.2-11.733,4.267-14.933
	c1.067-3.2,4.267-5.333,4.267-5.333s-3.2,5.333-2.133,25.6s5.333,40.533,5.333,40.533s-2.133,7.467-3.2,10.667
	c-1.067,3.2-1.067,8.533-1.067,8.533L256.713,185.856z"/>
<path style="fill:#344A5E;" d="M262.046,179.456l-5.333,5.333c-1.067-1.067-1.067-1.067-2.133-1.067h-1.067c-1.067,0-2.133,0-3.2,0
	c-2.133,0-3.2,0-4.267,2.133c1.067-2.133,3.2-3.2,4.267-3.2c1.067,0,1.067,1.067,2.133,1.067s2.133-1.067,1.067-1.067
	c0,0-1.067,0-1.067,1.067c0,0,0,0,0-1.067c-1.067,0-1.067,0-2.133,0c0-1.067,1.067-1.067,2.133-1.067l0,0c0,0,0,0,0-1.067
	c0,0,0,0,1.067-1.067h1.067c3.2,0,6.4-1.067,7.467-4.267C262.046,177.323,262.046,179.456,262.046,179.456z"/>
<path style="fill:#425A6B;" d="M344.179,119.723c0,0,6.4,33.067,5.333,38.4c0,0-5.333-1.067-10.667,0
	c-4.267,1.067-23.467,2.133-23.467,2.133s13.867,33.067,3.2,35.2c0,0,22.4-1.067,35.2-4.267c12.8-3.2,25.6-6.4,27.733-8.533
	c2.133-2.133,3.2-11.733,3.2-21.333s-4.267-41.6-4.267-45.867c0-5.333,0-9.6,0-13.867c0-5.333-5.333-24.533-13.867-25.6
	C359.113,75.989,338.846,94.123,344.179,119.723z"/>
<path style="fill:#344A5E;" d="M347.379,104.789c-4.267,7.467,0,33.067,0,33.067s8.533,23.467,20.267,50.133l9.6,90.667
	c0,0-23.467,2.133-32,4.267s-34.133,8.533-44.8-6.4c-10.667-13.867-20.267-118.4-20.267-118.4l42.667-73.6l13.867-13.867
	c0,0,27.733,6.4,30.933,7.467C360.179,84.523,352.713,93.056,347.379,104.789z"/>
<path style="fill:#E8EAE8;" d="M319.646,196.523c0,0-14.933-7.467-3.2-35.2c0,0,9.6,7.467,11.733,13.867
	C330.313,182.656,329.246,195.456,319.646,196.523z"/>
<path style="fill:#FFD15C;" d="M301.513,87.723c0,0,2.133-7.467-2.133-9.6c0,0-1.067-1.067-2.133-1.067
	c-4.267-2.133-10.667-6.4-10.667-6.4s-5.333,0-5.333-4.267c0-4.267-1.067-6.4-1.067-7.467c-1.067-1.067,0-2.133,1.067-2.133
	c0,0-2.133,0-2.133-2.133c0,0,0-3.2-1.067-5.333c0,0-3.2,1.067-4.267-1.067c-1.067-3.2,0-8.533,2.133-10.667
	c0,0,1.067-2.133-1.067-3.2c-1.067-1.067,0-18.133,8.533-22.4s16-4.267,16-4.267l12.8,7.467c0,0,17.067,12.8,11.733,30.933
	l1.067,7.467c0,0-1.067,5.333,0,9.6L301.513,87.723z"/>
<path style="fill:#F05640;" d="M302.579,87.723l-1.067,2.133l-1.067,24.533l-10.667,20.267l-1.067-22.4c0,0,6.4-16,6.4-19.2
	c1.067-2.133,1.067-7.467,1.067-7.467l1.067-2.133L302.579,87.723z"/>
<path style="fill:#F26F5A;" d="M296.179,86.656c0,0,5.333,1.067,5.333,3.2l6.4-6.4l-6.4-5.333l-5.333,1.067
	C297.246,78.123,296.179,84.523,296.179,86.656z"/>
<g>
	<path style="fill:#344A5E;" d="M140.446,481.323l21.333,3.2l1.067-4.267c0,0,5.333,0,8.533,2.133
		c3.2,2.133,14.933,5.333,18.133,5.333c3.2,0,3.2-5.333,3.2-5.333l-24.533-10.667C170.313,473.856,141.513,474.923,140.446,481.323z
		"/>
	<path style="fill:#344A5E;" d="M158.579,473.856c0,0,10.667,5.333,14.933,7.467c4.267,2.133,19.2,4.267,19.2,4.267l-10.667-17.067
		L158.579,473.856z"/>
	<path style="fill:#344A5E;" d="M212.979,498.389l2.133-1.067c0,0-1.067-11.733-4.267-13.867c-3.2-2.133-5.333-2.133-5.333-2.133
		l-21.333,3.2l-1.067,2.133l1.067,4.267c0,0,1.067,3.2,1.067,4.267c0,1.067,6.4,3.2,7.467,3.2
		C194.846,499.456,212.979,498.389,212.979,498.389z"/>
</g>
<g>
	<path style="fill:#425A6B;" d="M183.113,487.723l2.133,3.2c0,0,0,3.2,1.067,5.333c1.067,2.133,10.667,2.133,12.8,2.133
		s12.8-1.067,14.933,0l0,0c0,1.067-1.067,3.2-3.2,3.2c-4.267,0-11.733,1.067-16,0c-3.2,0-6.4,0-8.533-1.067
		c-2.133-1.067-3.2-3.2-3.2-4.267l0,0c0-1.067,0-1.067,0-1.067l1.067-4.267c0,0,0-1.067,0-2.133v-1.067H183.113z"/>
	<path style="fill:#425A6B;" d="M221.513,251.989c0,0,0,1.067,0,2.133c-1.067,8.533-9.6,58.667-16,74.667
		c-7.467,18.133-23.467,129.067-23.467,129.067l3.2,11.733c0,0-14.933,13.867-43.733,11.733c0,0-2.133-21.333,0-44.8
		s10.667-54.4,14.933-62.933c4.267-8.533,7.467-30.933,7.467-36.267c-1.067-5.333,9.6-26.667,9.6-26.667l16-87.467l26.667-6.4
		C226.846,211.456,226.846,228.523,221.513,251.989z"/>
</g>
<g>
	<path style="fill:#344A5E;" d="M194.846,264.789l1.067-13.867l-10.667-8.533l7.467,142.933c4.267-25.6,8.533-49.067,11.733-56.533
		c1.067-4.267,3.2-9.6,4.267-17.067C205.513,296.789,200.179,276.523,194.846,264.789z"/>
	<path style="fill:#344A5E;" d="M183.113,326.656c-2.133-6.4-4.267-11.733-8.533-16c-1.067-1.067-1.067-1.067-2.133-2.133v1.067
		c0,0-4.267,8.533-6.4,16c3.2,7.467,5.333,14.933,5.333,23.467c0,10.667-1.067,22.4-1.067,33.067c0,16,3.2,33.067,6.4,49.067
		c2.133,13.867,4.267,28.8,2.133,42.667c4.267-2.133,6.4-4.267,6.4-4.267l-3.2-11.733c0,0,5.333-39.467,11.733-74.667
		C192.713,363.989,188.446,344.789,183.113,326.656z"/>
</g>
<path style="fill:#425A6B;" d="M216.179,461.056c-1.067,8.533-3.2,24.533-3.2,24.533s-3.2,0-11.733-1.067
	c-8.533-1.067-16,5.333-16,5.333c-2.133-7.467-4.267-18.133-4.267-18.133s3.2-28.8,0-50.133c-3.2-21.333-4.267-65.067-3.2-68.267
	c1.067-4.267,0-9.6,0-9.6s-6.4-21.333-20.267-48c-13.867-25.6-16-49.067-16-49.067l9.6-24.533h1.067l41.6,30.933
	c0,0,14.933,71.467,19.2,80s2.133,21.333,3.2,27.733c0,6.4-1.067,45.867-1.067,51.2
	C215.113,417.323,217.246,453.589,216.179,461.056z"/>
<path style="fill:#344A5E;" d="M227.913,165.589c0,0,1.067,3.2,5.333,5.333c4.267,2.133,9.6,7.467,9.6,7.467l-4.267,7.467h-10.667
	C228.979,185.856,224.713,171.989,227.913,165.589z"/>
<path style="fill:#425A6B;" d="M154.313,93.056c0,0-6.4-1.067-12.8,10.667c-6.4,11.733-10.667,40.533-11.733,44.8
	c-1.067,4.267-5.333,37.333-2.133,44.8c3.2,7.467,60.8,37.333,60.8,37.333s4.267-12.8,5.333-17.067s8.533-17.067,8.533-17.067
	l-46.933-19.2l11.733-44.8l8.533-12.8C175.646,118.656,171.379,96.256,154.313,93.056z"/>
<path style="fill:#344A5E;" d="M226.846,258.389c1.067,5.333-5.333,2.133-7.467,0c0,0,0-1.067-1.067-2.133
	c0-2.133,1.067-4.267,1.067-5.333c0-1.067,0-1.067,0-1.067c4.267-19.2,5.333-29.867,0-32l4.267-21.333c0,0,3.2-28.8,3.2-36.267
	c0-7.467,3.2-20.267-2.133-28.8c-5.333-8.533-16-30.933-16-30.933l-7.467-8.533c0,0,17.067,10.667,19.2,11.733
	c3.2,1.067,5.333,2.133,5.333,9.6c1.067,7.467,4.267,39.467,4.267,39.467s-6.4,58.667-5.333,69.333
	C226.846,234.923,225.779,253.056,226.846,258.389z"/>
<path style="fill:#F26F5A;" d="M203.379,67.456c1.067,6.4,2.133,12.8,0,19.2c-1.067,3.2-3.2,5.333-6.4,7.467
	c0-2.133,1.067-5.333,2.133-7.467c3.2-6.4,3.2-13.867,0-19.2"/>
<path style="fill:#FFD15C;" d="M217.246,38.656c0,0,1.067,4.267,0,6.4s-1.067,3.2-1.067,4.267s5.333,7.467,5.333,9.6
	c0,2.133-1.067,2.133-3.2,2.133c-1.067,0-2.133,1.067-2.133,2.133s1.067,3.2-1.067,4.267c0,0,2.133,1.067,1.067,3.2
	c0,0-1.067,0-2.133,2.133c0,2.133,0,7.467-4.267,7.467s-6.4-1.067-8.533,1.067c-1.067,2.133-3.2,6.4-3.2,8.533
	s4.267,8.533,4.267,8.533c4.267,4.267,3.2,11.733,1.067,19.2v6.4l-19.2-19.2l-6.4-19.2l-1.067-4.267c0,0,9.6-14.933,9.6-16
	s10.667-28.8,10.667-28.8S215.113,35.456,217.246,38.656z"/>
<path style="fill:#F5B54C;" d="M186.313,66.389c6.4,5.333,12.8,10.667,20.267,13.867c-1.067,0-3.2,0-3.2,1.067
	c-1.067,1.067-3.2,5.333-3.2,7.467C192.713,82.389,188.446,74.923,186.313,66.389z"/>
<path style="fill:#E8EAE8;" d="M202.313,95.189c1.067,2.133,3.2,16-1.067,18.133c-7.467,3.2-19.2-12.8-22.4-25.6l-1.067-9.6
	l-7.467,50.133l21.333,28.8l16,40.533l4.267-2.133c10.667-5.333,17.067-14.933,17.067-26.667v-24.533l-10.667-29.867l-17.067-22.4
	L202.313,95.189z"/>
<path style="fill:#344A5E;" d="M171.379,82.389c0,0-7.467,9.6-17.067,10.667c0,0,16,17.067,11.733,36.267
	c-3.2,18.133-21.333,84.267-24.533,90.667c-3.2,6.4-5.333,36.267-5.333,36.267s3.2,0,6.4,0s36.267,5.333,44.8,6.4
	c8.533,1.067,18.133-10.667,20.267-19.2s5.333-54.4,5.333-54.4s-5.333-41.6-8.533-45.867s-30.933-57.6-32-61.867
	s-1.067-4.267-1.067-4.267V82.389z"/>
<g>
	<path style="fill:#425A6B;" d="M199.113,90.923L199.113,90.923l19.2,18.133h-4.267l6.4,5.333c0,0,11.733,26.667,10.667,38.4
		c-1.067,11.733-7.467,48-7.467,48s1.067-52.267,0-56.533c-1.067-4.267-14.933-29.867-18.133-37.333S199.113,90.923,199.113,90.923z
		"/>
	<path style="fill:#425A6B;" d="M175.646,78.123l-3.2,22.4l7.467,1.067l-3.2,5.333c0,0,20.267,32,23.467,35.2
		c3.2,3.2,14.933,44.8,14.933,44.8s-2.133-35.2-7.467-46.933C203.379,129.323,178.846,90.923,175.646,78.123z"/>
</g>
<path style="fill:#67C5B8;" d="M227.913,167.723l-14.933,70.4c0,2.133-2.133,3.2-4.267,2.133l-50.133-10.667
	c-2.133,0-3.2-2.133-2.133-4.267l16-70.4c0-2.133,2.133-3.2,4.267-2.133l50.133,10.667
	C226.846,164.523,227.913,166.656,227.913,167.723z"/>
<g>
	<path style="fill:#F26F5A;" d="M218.313,39.723c0,1.067,0,1.067,0,2.133c0,0-5.333-4.267-10.667-2.133
		c-5.333,2.133-10.667,8.533-12.8,13.867c-2.133,5.333-7.467,25.6-3.2,39.467c0,0-7.467-4.267-12.8-10.667
		c0,0,2.133,4.267,8.533,10.667c0,0-7.467-3.2-10.667-8.533c0,0-1.067,4.267,2.133,7.467c0,0-6.4,2.133-16-5.333
		c-2.133-2.133-4.267-5.333-6.4-7.467c-4.267-8.533-5.333-18.133-2.133-26.667c3.2-10.667,9.6-27.733,20.267-32
		c8.533-3.2,19.2-4.267,26.667-2.133C210.846,20.523,218.313,29.056,218.313,39.723z"/>
	<path style="fill:#F26F5A;" d="M198.046,42.923c0,0,0,1.067-1.067,2.133c0,1.067-1.067,1.067-1.067,2.133s-1.067,2.133-1.067,3.2
		c0,1.067-1.067,2.133-1.067,3.2c0,1.067,0,1.067-1.067,2.133c0,1.067,0,1.067-1.067,2.133c0,1.067,0,1.067-1.067,2.133
		c0,1.067,0,1.067,0,2.133s-1.067,3.2-1.067,4.267s0,3.2-1.067,4.267c0,1.067,0,3.2,0,4.267s0,3.2,0,4.267s0,2.133,0,3.2
		c0,1.067,0,2.133,1.067,3.2c0,1.067,1.067,1.067,1.067,2.133c2.133,0,2.133,0,2.133,1.067l0,0l0,0l-1.067-1.067
		c0,0-1.067-1.067-1.067-2.133s-1.067-2.133-1.067-3.2s0-2.133-1.067-3.2c0-1.067,0-3.2,0-4.267s0-3.2,0-4.267s0-3.2,0-4.267
		s0-3.2,1.067-4.267c0-1.067,0-1.067,0-2.133s0-1.067,0-2.133s0-1.067,0-2.133s0-1.067,0-2.133s1.067-2.133,1.067-3.2
		c0-1.067,1.067-2.133,1.067-3.2c0-1.067,1.067-2.133,1.067-2.133c0-1.067,1.067-2.133,1.067-2.133L198.046,42.923z"/>
	<path style="fill:#F26F5A;" d="M176.713,77.056C176.713,77.056,176.713,78.123,176.713,77.056c0,1.067,0,2.133,0,3.2
		c0,2.133-1.067,4.267,0,6.4c0,1.067,0,1.067,0,1.067v1.067v1.067c0,0,0,1.067,1.067,1.067l0,0l0,0c0,0,0,0,1.067,1.067l0,0l0,0l0,0
		l0,0c0,0,0,0-1.067-1.067l0,0l0,0c0,0,0-1.067-1.067-1.067c0,0,0-1.067-1.067-1.067v-1.067c0-1.067,0-1.067,0-2.133
		c0-2.133,0-4.267,0-6.4c0-1.067,0-1.067,0-2.133v-1.067L176.713,77.056z"/>
	<path style="fill:#F26F5A;" d="M203.379,85.589c-1.067,3.2-3.2,5.333-6.4,7.467c0-2.133,1.067-5.333,2.133-7.467H203.379z"/>
</g>
<path style="fill:#FFD15C;" d="M192.713,211.456c0,0,4.267,1.067,5.333,2.133c1.067,0,4.267,4.267,5.333,5.333
	c1.067,1.067,11.733,7.467,12.8,7.467s6.4,1.067,6.4-2.133c0-3.2-2.133-3.2-2.133-3.2s3.2,0,4.267-2.133
	c0-2.133-1.067-3.2-1.067-3.2s2.133,0,3.2-2.133c1.067-1.067-1.067-3.2-1.067-3.2s2.133,0,2.133-3.2
	c1.067-2.133-1.067-4.267-1.067-4.267c-1.067,0-4.267-2.133-4.267-2.133s2.133,0,3.2,0c0,0,5.333,4.267,8.533-1.067l-4.267-2.133
	c0,0-2.133-2.133-5.333-2.133c-3.2,0-10.667,0-12.8,0c-1.067,0-6.4,1.067-10.667,3.2
	C194.846,199.723,192.713,211.456,192.713,211.456"/>
<path style="fill:#425A6B;" d="M202.313,196.523c0,0-6.4,12.8-8.533,17.067c-1.067,4.267-5.333,17.067-5.333,17.067
	s-56.533-29.867-60.8-37.333l26.667-14.933L202.313,196.523z"/>
<path style="fill:#F3F3F3;" d="M232.179,199.723c-6.4,0-4.267-2.133-4.267-2.133L232.179,199.723z"/>
<path style="fill:#FFD15C;" d="M227.913,178.389c0,0,0-2.133,0-3.2c1.067-1.067,2.133-3.2,2.133-3.2s4.267,0,4.267,1.067
	c1.067,1.067,7.467,0,8.533,2.133c1.067,1.067-1.067,3.2-1.067,3.2l-6.4,2.133L227.913,178.389z"/>
<g>
	<path style="fill:#F5B54C;" d="M227.913,179.456L227.913,179.456C227.913,178.389,227.913,178.389,227.913,179.456
		c0-1.067,0-1.067,0-1.067l0,0c0,0,0,0,1.067,0c0,0,0,0,1.067,0l0,0l0,0c0,0,0,0,1.067,0l0,0l0,0c0,0,0,0,1.067,0c0,0,0,0,1.067,0
		c1.067,0,1.067,1.067,1.067,1.067s0,0-1.067,0h-1.067c0,0,0,0-1.067,0c0,0,0,0-1.067,0l0,0l0,0c0,0,0,0-1.067,0l0,0
		C228.979,178.389,228.979,178.389,227.913,179.456C228.979,178.389,228.979,178.389,227.913,179.456
		C227.913,178.389,227.913,178.389,227.913,179.456L227.913,179.456z"/>
	<path style="fill:#F5B54C;" d="M231.113,177.323c1.067,0,2.133,0,4.267-1.067h1.067l0,0h1.067h1.067
		c1.067,0,1.067-1.067,2.133-1.067c0,1.067-1.067,2.133-2.133,3.2c-1.067,0-2.133,1.067-3.2,0
		C233.246,178.389,232.179,178.389,231.113,177.323"/>
</g>
<path style="fill:#FFD15C;" d="M227.913,179.456c0,0,0-1.067,2.133-2.133c2.133-1.067,4.267,0,4.267,0s3.2,0,4.267,0
	c1.067,0,1.067-3.2,2.133-3.2c1.067-1.067,3.2,0,4.267,1.067c1.067,1.067,1.067,3.2,0,4.267c0,0,0,1.067,1.067,1.067
	c1.067,1.067,1.067,3.2-1.067,5.333v1.067c0,1.067-1.067,2.133-3.2,3.2c0,0,0,3.2-2.133,4.267c-2.133,1.067-4.267,1.067-4.267,1.067
	s-1.067,0-2.133,0s-5.333-2.133-5.333-3.2l-2.133-2.133c0,0-1.067-1.067,0-2.133c0-1.067,1.067-1.067,2.133-1.067
	c0,0-3.2-1.067-2.133-3.2c0-2.133,2.133-1.067,2.133-1.067s-3.2-1.067-2.133-3.2c0,0,0-1.067,1.067-1.067
	C226.846,178.389,226.846,178.389,227.913,179.456z"/>
<path style="fill:#FFFFFF;" d="M231.113,180.523l-3.2-1.067c0,0,0-2.133,3.2-1.067C231.113,177.323,232.179,178.389,231.113,180.523
	z"/>
<g>
	<path style="fill:#F5B54C;" d="M227.913,178.389c1.067,0,1.067,0,2.133,1.067l2.133,1.067l0,0l0,0c1.067,0,2.133,1.067,3.2,1.067
		c1.067,0,2.133,1.067,3.2,1.067c0,0,0,0,1.067,0c0,0,0,0,1.067,0c0,0,0,0,1.067,0c0,0,0,0,1.067,0c0,0,0,0,1.067,0l0,0l0,0l0,0l0,0
		c0,0,0,0,1.067,0c0,0,0,0-1.067,0l0,0l0,0l0,0l0,0c0,0,0,0-1.067,0c0,0,0,0-1.067,0c0,0,0,0-1.067,0c0,0,0,0-1.067,0
		c0,0,0,0-1.067,0c-1.067,0-2.133-1.067-3.2-1.067c0,0-1.067,0-1.067-1.067c0,0-1.067,0-1.067-1.067l0,0l-2.133-1.067
		C228.979,179.456,227.913,179.456,227.913,178.389z"/>
	<path style="fill:#F5B54C;" d="M225.779,182.656C225.779,182.656,226.846,182.656,225.779,182.656
		c1.067,1.067,2.133,1.067,2.133,1.067s1.067,0,1.067,1.067l0,0l0,0c0,0,0,0,1.067,0c1.067,0,2.133,1.067,3.2,1.067h1.067h1.067
		c1.067,0,1.067,0,2.133,0c1.067,0,1.067,0,1.067,0h1.067c1.067,0,1.067,0,2.133-1.067h1.067c0,0,0,0-1.067,0
		c0,0-1.067,0-2.133,1.067h-1.067c0,0-1.067,0-2.133,0c-1.067,0-1.067,0-2.133,0h-1.067h-1.067c-1.067,0-2.133-1.067-3.2-1.067
		c0,0,0,0-1.067,0l0,0l0,0l-1.067-1.067C227.913,183.723,226.846,183.723,225.779,182.656
		C226.846,182.656,225.779,182.656,225.779,182.656z"/>
	<path style="fill:#F5B54C;" d="M226.846,186.923L226.846,186.923c1.067,1.067,1.067,1.067,2.133,1.067c0,0,1.067,0,1.067,1.067
		l1.067,1.067l0,0l0,0c0,0,0,0,1.067,0c0,0,1.067,0,1.067,1.067c0,0,1.067,0,1.067,1.067c0,0,0,0,1.067,0l0,0l0,0l0,0l0,0l0,0
		c0,0,0,0,1.067,0c0,0,1.067,0,1.067-1.067c1.067,0,1.067-1.067,2.133-1.067h1.067c0,0,0,0-1.067,0l-1.067,1.067
		c0,0-1.067,0-1.067,1.067c0,0,0,0-1.067,0l0,0l0,0l0,0l0,0l0,0c0,0,0,0-1.067,0c0,0-1.067,0-1.067-1.067c0,0-1.067,0-1.067-1.067
		c0,0,0,0-1.067,0l0,0l0,0l-1.067-1.067l-1.067-1.067C228.979,187.989,227.913,187.989,226.846,186.923L226.846,186.923z"/>
</g>
<g>
	<path style="fill:#FFFFFF;" d="M226.846,182.656c0,0,1.067-1.067,1.067-2.133c-1.067-1.067-1.067-1.067-1.067-1.067
		s-1.067,0-1.067,2.133L226.846,182.656z"/>
	<path style="fill:#FFFFFF;" d="M225.779,184.789l1.067,1.067c0,0,0-1.067,1.067-1.067l-1.067-1.067
		C225.779,183.723,224.713,183.723,225.779,184.789z"/>
	<path style="fill:#FFFFFF;" d="M225.779,189.056c0,0,0-1.067,1.067-1.067l1.067,1.067l-1.067,1.067L225.779,189.056z"/>
</g>
<path style="fill:#425A6B;" d="M284.446,11.989c0,0-3.2-4.267,0-8.533c3.2-3.2,20.267-5.333,29.867-1.067
	c9.6,4.267,17.067,9.6,17.067,20.267s-1.067,20.267-5.333,29.867c0,0-3.2-3.2-4.267-9.6c-1.067-7.467-5.333-11.733-10.667-9.6
	c-5.333,1.067-1.067,10.667-1.067,10.667l-3.2,1.067c0,0-2.133-10.667-4.267-12.8s-3.2-5.333-1.067-11.733
	c3.2-7.467-4.267-9.6-7.467-9.6C289.779,10.923,284.446,11.989,284.446,11.989z"/>
<ellipse style="fill:#FFD15C;" cx="314.313" cy="36.523" rx="5.333" ry="6.4"/>
<path style="fill:#F5B54C;" d="M316.446,53.589c0,0-6.4,13.867-18.133,23.467c-4.267-2.133-10.667-6.4-10.667-6.4
	S305.779,66.389,316.446,53.589z"/>
<path style="fill:#E8EAE8;" d="M302.579,78.123c0,0-4.267,2.133-6.4,5.333c-2.133,4.267-4.267,11.733-7.467,13.867l3.2-21.333
	l1.067-2.133C292.979,73.856,298.313,77.056,302.579,78.123z"/>
<path style="fill:#425A6B;" d="M292.979,73.856l-11.733,14.933l3.2,2.133l-6.4,4.267c0,0,0,33.067,2.133,40.533
	c1.067,7.467,3.2,50.133,3.2,50.133s7.467-86.4,7.467-88.533C290.846,96.256,292.979,73.856,292.979,73.856z"/>
<path style="fill:#E8EAE8;" d="M302.579,78.123l11.733,13.867l16-25.6l-4.267-7.467C326.046,58.923,305.779,73.856,302.579,78.123z"
	/>
<path style="fill:#425A6B;" d="M328.179,61.056c0,0-7.467,13.867-10.667,17.067c-2.133,3.2-26.667,46.933-33.067,59.733
	c-6.4,11.733-5.333,19.2-5.333,19.2s27.733-39.467,29.867-42.667c2.133-2.133,22.4-29.867,22.4-29.867l-5.333-3.2l7.467-3.2
	c0,0,2.133-8.533,2.133-9.6c0,0-4.267-2.133-5.333-4.267C330.313,62.123,329.246,61.056,328.179,61.056z"/>
<polygon style="fill:#E8EAE8;" points="280.179,93.056 270.579,158.123 289.779,200.789 294.046,186.923 298.313,134.656 
	283.379,95.189 "/>
<path style="fill:#FFD15C;" d="M270.579,190.123L270.579,190.123L270.579,190.123L270.579,190.123L270.579,190.123z"/>
<g>
	<path style="fill:#F5B54C;" d="M258.846,183.723L258.846,183.723L258.846,183.723L258.846,183.723z"/>
	<path style="fill:#F5B54C;" d="M258.846,183.723L258.846,183.723L258.846,183.723z"/>
	<path style="fill:#F5B54C;" d="M258.846,182.656C258.846,182.656,258.846,183.723,258.846,182.656
		C258.846,183.723,258.846,182.656,258.846,182.656z"/>
</g>
<path style="fill:#FFD15C;" d="M280.179,168.789c0,0-2.133,2.133-4.267,2.133c0,0,1.067,1.067,0,2.133c0,0,4.267,3.2,4.267,5.333
	c1.067,1.067,3.2,9.6,3.2,9.6s2.133,3.2,0,4.267c-2.133,1.067-3.2,0-3.2,0s0,1.067-2.133,0l-2.133-2.133c0,0-1.067,2.133-4.267,0
	l0,0l0,0l0,0l0,0l0,0c1.067-2.133-3.2-4.267-3.2-4.267l-6.4-1.067l-2.133-1.067l-1.067,1.067l0,0v-1.067l0,0
	c0-1.067,0-1.067,0-2.133c0,0,0-2.133,1.067-2.133s1.067-3.2,2.133-4.267c1.067-1.067,2.133-2.133,2.133-3.2
	c0-1.067,1.067-3.2,2.133-3.2s2.133-1.067,2.133-2.133s2.133-2.133,4.267-2.133c2.133,0,10.667-2.133,11.733,0
	c0,0,2.133,4.267-1.067,5.333C283.379,168.789,281.246,168.789,280.179,168.789z"/>
<g>
	<path style="fill:#F5B54C;" d="M280.179,191.189L280.179,191.189c0-1.067-1.067-2.133-1.067-3.2c0,0,0-1.067-1.067-1.067
		c0,0,0-1.067-1.067-1.067c0-1.067-1.067-2.133-2.133-3.2l-1.067-1.067c0,0,0,0,0-1.067c0,0,0,0-1.067-1.067c0,0,0,0-1.067,0
		c0,0,0,0-1.067,0l-1.067-1.067c-1.067-1.067-1.067-1.067-2.133-1.067l-1.067-1.067c0,0,0,0,1.067,0c0,0,1.067,1.067,2.133,1.067
		c0,0,1.067,0,1.067,1.067c0,0,0,0,1.067,0c0,0,0,0,1.067,0l1.067,1.067l1.067,1.067c1.067,1.067,1.067,2.133,2.133,3.2
		c0,0,0,1.067,1.067,1.067v1.067C280.179,189.056,280.179,190.123,280.179,191.189L280.179,191.189z"/>
	<path style="fill:#F5B54C;" d="M275.913,191.189c0,0-1.067-1.067-1.067-2.133c0,0,0-1.067-1.067-1.067l0,0l0,0
		c-1.067-1.067-1.067-1.067-2.133-2.133l-1.067-1.067l-1.067-1.067c-1.067,0-1.067-1.067-2.133-1.067
		c-1.067,0-1.067-1.067-1.067-1.067l0,0c0,0,0,0,1.067,0c0,0,1.067,0,1.067,1.067c1.067,0,1.067,1.067,2.133,1.067l1.067,1.067
		l1.067,1.067c1.067,1.067,1.067,1.067,2.133,2.133l0,0l0,0c0,0,0,1.067,1.067,1.067
		C274.846,189.056,274.846,190.123,275.913,191.189C275.913,190.123,275.913,191.189,275.913,191.189z"/>
</g>
<path style="fill:#FFFFFF;" d="M282.313,164.523h2.133l-1.067,2.133c0,0-1.067,0-2.133,0
	C281.246,166.656,281.246,164.523,282.313,164.523z"/>
<path style="fill:#FFD15C;" d="M285.513,167.723c-2.133-1.067-2.133-4.267,0-5.333"/>
<path style="fill:#F5B54C;" d="M284.446,167.723L284.446,167.723C284.446,167.723,284.446,166.656,284.446,167.723
	c0-1.067,0-1.067-1.067-1.067c0,0,0,0,0-1.067c0,0,0,0,0-1.067l0,0l0,0l0,0l0,0l0,0l0,0c0,0,0,0-1.067,0l0,0l0,0l0,0l0,0
	c0,0,0,0,0,1.067c0,0,0,0,0,1.067c0,0,0,0,0,1.067C283.379,166.656,284.446,166.656,284.446,167.723L284.446,167.723
	L284.446,167.723L284.446,167.723L284.446,167.723L284.446,167.723z"/>
<polygon style="fill:#8AD6F7;" points="305.779,133.589 298.313,134.656 280.179,93.056 281.246,93.056 282.313,93.056 
	283.379,93.056 "/>
<polygon style="fill:#E8EAE8;" points="303.646,132.523 299.379,133.589 281.246,93.056 282.313,93.056 "/>
<polygon style="fill:#56BFEB;" points="305.779,134.656 296.179,200.789 289.779,200.789 298.313,134.656 "/>
<path style="fill:#FFD15C;" d="M327.113,184.789l-3.2-2.133c0,0-6.4-1.067-8.533-2.133c-2.133-1.067-5.333-1.067-6.4,0
	c-1.067,1.067-6.4,2.133-9.6,1.067c-4.267-2.133-4.267-2.133-4.267-2.133l-7.467-5.333c-2.133-1.067-2.133-3.2-1.067-5.333
	c-2.133-1.067-2.133-4.267,0-5.333c0,0-2.133-2.133-1.067-4.267c1.067-2.133,2.133-2.133,2.133-2.133s1.067-1.067,2.133-2.133
	s3.2-2.133,4.267-1.067c4.267,1.067,9.6,4.267,9.6,4.267l2.133-16c1.067,2.133,2.133,4.267,2.133,5.333
	c1.067,1.067,4.267,8.533,5.333,9.6c1.067,2.133,3.2,6.4,4.267,6.4c1.067,1.067,6.4,5.333,6.4,5.333L327.113,184.789z"/>
<g>
	<path style="fill:#F5B54C;" d="M286.579,155.989c0,0,0,0,1.067,1.067l1.067,1.067l1.067,1.067l1.067,1.067c0,0,0,0,1.067,0
		c0,0,0,0,1.067,0l0,0l0,0l0,0l0,0l0,0c0,0,0,0-1.067,0c0,0,0,0-1.067,0c0,0,0,0-1.067,0c0,0,0,0-1.067,0c0,0,0,0-1.067-1.067
		c0,0,0,0-1.067-1.067c0,0,0,0-1.067-1.067l-1.067-1.067C286.579,157.056,286.579,155.989,286.579,155.989L286.579,155.989z"/>
	<path style="fill:#F5B54C;" d="M285.513,162.389L285.513,162.389c1.067,0,1.067,1.067,1.067,1.067l1.067,1.067l1.067,1.067
		c1.067,1.067,2.133,1.067,2.133,2.133c0,0,1.067,0,1.067,1.067l0,0l0,0l0,0h-1.067c0,0-1.067,0-1.067-1.067l-1.067-1.067
		l-1.067-1.067l-1.067-1.067C285.513,163.456,285.513,163.456,285.513,162.389L285.513,162.389z"/>
	<path style="fill:#F5B54C;" d="M285.513,167.723L285.513,167.723C285.513,168.789,286.579,168.789,285.513,167.723
		c2.133,1.067,2.133,2.133,3.2,2.133c1.067,1.067,1.067,1.067,2.133,2.133c0,0,0,0,1.067,1.067l0,0l0,0c0,0,0,0-1.067,0
		c-1.067-1.067-2.133-2.133-2.133-2.133C287.646,169.856,286.579,169.856,285.513,167.723
		C286.579,168.789,285.513,168.789,285.513,167.723L285.513,167.723z"/>
</g>
<g>
	<path style="fill:#425A6B;" d="M347.379,137.856c1.067,8.533,3.2,18.133,2.133,21.333c0,0-5.333-1.067-10.667,0
		c-4.267,1.067-22.4,2.133-22.4,2.133s12.8,34.133,3.2,35.2c0,0,22.4-1.067,35.2-4.267c12.8-3.2,25.6-6.4,27.733-8.533
		c2.133-2.133,3.2-11.733,3.2-21.333c0-4.267-1.067-14.933-2.133-25.6h-36.267V137.856z"/>
</g>
<g>
</g>
<g>
</g>
<g>
</g>
<g>
</g>
<g>
</g>
<g>
</g>
<g>
</g>
<g>
</g>
<g>
</g>
<g>
</g>
<g>
</g>
<g>
</g>
<g>
</g>
<g>
</g>
<g>
</g>
</svg>
