<svg height="512" viewBox="0 0 64 64" width="512" xmlns="http://www.w3.org/2000/svg"><g id="Filled_outline" data-name="Filled outline"><path d="m18 52h28v4h-28z" fill="#96c3f0"/><path d="m11.808 37.879h18.385v4.243h-18.385z" fill="#96c3f0" transform="matrix(.707 -.707 .707 .707 -22.134 26.565)"/><path d="m40.879 30.808h4.243v18.385h-4.243z" fill="#96c3f0" transform="matrix(.707 -.707 .707 .707 -15.69 42.121)"/><circle cx="32" cy="29" fill="#5f79ba" r="8"/><circle cx="11" cy="53" fill="#5f79ba" r="8"/><circle cx="53" cy="53" fill="#5f79ba" r="8"/><g fill="#ffd782"><rect height="6" rx="3" width="6" x="29" y="3"/><rect height="6" rx="3" width="6" x="8" y="27"/><rect height="6" rx="3" width="6" x="50" y="27"/><path d="m37 13h-10a3 3 0 0 0 -3 3v1.888a2.079 2.079 0 0 0 1.666 2.085 2 2 0 0 0 2.334-1.973v11a2 2 0 0 0 4 0 2 2 0 0 0 4 0v-11a2 2 0 0 0 4 0v-2a3 3 0 0 0 -3-3z"/><path d="m58 37h-10a3 3 0 0 0 -3 3v1.888a2.079 2.079 0 0 0 1.666 2.085 2 2 0 0 0 2.334-1.973v11a2 2 0 0 0 4 0 2 2 0 0 0 4 0v-11a2 2 0 0 0 4 0v-2a3 3 0 0 0 -3-3z"/><path d="m16 37h-10a3 3 0 0 0 -3 3v1.888a2.079 2.079 0 0 0 1.666 2.085 2 2 0 0 0 2.334-1.973v11a2 2 0 0 0 4 0 2 2 0 0 0 4 0v-11a2 2 0 0 0 4 0v-2a3 3 0 0 0 -3-3z"/></g><path d="m28 6a4 4 0 1 0 4-4 4 4 0 0 0 -4 4zm6 0a2 2 0 1 1 -2-2 2 2 0 0 1 2 2z"/><path d="m15 30a4 4 0 1 0 -4 4 4 4 0 0 0 4-4zm-6 0a2 2 0 1 1 2 2 2 2 0 0 1 -2-2z"/><path d="m49 30a4 4 0 1 0 4-4 4 4 0 0 0 -4 4zm4-2a2 2 0 1 1 -2 2 2 2 0 0 1 2-2z"/><path d="m58 36h-10a3.975 3.975 0 0 0 -3.092 1.494l-4.746-4.746a8.9 8.9 0 0 0 -3.162-11.2v-.719a3 3 0 0 0 4-2.829v-2a4 4 0 0 0 -4-4h-10a4 4 0 0 0 -4 4v1.889a3 3 0 0 0 4 2.939v.72a8.9 8.9 0 0 0 -3.162 11.2l-4.746 4.746a3.975 3.975 0 0 0 -3.092-1.494h-10a4 4 0 0 0 -4 4v1.889a3.087 3.087 0 0 0 2.505 3.071 3.057 3.057 0 0 0 1.495-.132v.72a8.982 8.982 0 1 0 13.037 11.452h25.926a8.983 8.983 0 1 0 13.037-11.452v-.719a3 3 0 0 0 4-2.829v-2a4 4 0 0 0 -4-4zm-13.946 3.468a3.9 3.9 0 0 0 -.054.532v1.889a3.159 3.159 0 0 0 .118.815l-6.6-6.6a8.755 8.755 0 0 0 1.582-1.586zm-17.409-20.7a.994.994 0 0 1 -.819.222 1.086 1.086 0 0 1 -.826-1.1v-1.89a2 2 0 0 1 2-2h10a2 2 0 0 1 2 2v2a1 1 0 0 1 -2 0v-2h-2v13a1 1 0 0 1 -2 0v-8h-2v8a1 1 0 0 1 -2 0v-13h-2v2a1.009 1.009 0 0 1 -.355.763zm.355 5.342v4.89a3 3 0 0 0 5 2.234 3 3 0 0 0 5-2.234v-4.89a7 7 0 0 1 2 4.89 7.012 7.012 0 0 1 -3.55 6.084 7.06 7.06 0 0 1 -6.912-.006 7.019 7.019 0 0 1 -3.538-6.078 7 7 0 0 1 2-4.89zm-7.054 15.358 4.954-4.951a8.755 8.755 0 0 0 1.582 1.583l-6.563 6.562a2.926 2.926 0 0 0 .081-.662v-2a3.9 3.9 0 0 0 -.054-.532zm-2.453 16.156a7 7 0 1 1 -11.493-7.514v4.89a3 3 0 0 0 5 2.234 3 3 0 0 0 5-2.234v-4.875a7 7 0 0 1 1.947 3.995 7.112 7.112 0 0 1 -.454 3.5zm-1.493-10.082v-.713a3 3 0 0 0 1 .171 2.926 2.926 0 0 0 .666-.081l-1.066 1.063c-.19-.156-.392-.301-.6-.44zm2-3.542a1 1 0 0 1 -2 0v-2h-2v13a1 1 0 0 1 -2 0v-8h-2v8a1 1 0 0 1 -2 0v-13h-2v2a1.009 1.009 0 0 1 -.355.767.993.993 0 0 1 -.819.222 1.086 1.086 0 0 1 -.826-1.1v-1.889a2 2 0 0 1 2-2h10a2 2 0 0 1 2 2zm1.766 13a8.975 8.975 0 0 0 .234-2h24a8.982 8.982 0 0 0 .234 2zm24.465-4h-24.462a9.022 9.022 0 0 0 -1.749-3.606l10.232-10.232a8.8 8.8 0 0 0 7.5 0l10.228 10.238a9.031 9.031 0 0 0 -1.749 3.6zm15.769 2a7 7 0 0 1 -13.491 2.63 7.083 7.083 0 0 1 -.509-2.63 7.178 7.178 0 0 1 .052-.875 7.006 7.006 0 0 1 1.948-4v4.875a3 3 0 0 0 5 2.234 3 3 0 0 0 5-2.234v-4.89a7 7 0 0 1 2 4.89zm-13.673-8.087c.06.014.117.037.178.047a3.057 3.057 0 0 0 1.495-.132v.714c-.208.139-.41.284-.6.44zm13.673-2.913a1 1 0 0 1 -2 0v-2h-2v13a1 1 0 0 1 -2 0v-8h-2v8a1 1 0 0 1 -2 0v-13h-2v2a1.009 1.009 0 0 1 -.355.767.994.994 0 0 1 -.819.222 1.086 1.086 0 0 1 -.826-1.1v-1.889a2 2 0 0 1 2-2h10a2 2 0 0 1 2 2z"/></g></svg>